<svg width="14" height="13" viewBox="0 0 14 13" fill="none" xmlns="http://www.w3.org/2000/svg">
<path d="M3.70932 12.1464L3.5905 4.12048L1.09413 4.15744L1.21295 12.1834L3.70932 12.1464ZM2.31299 3.06545C3.11828 3.05353 3.75256 2.37292 3.74064 1.56764C3.72912 0.789202 3.07536 0.154515 2.27008 0.166438C1.49164 0.177962 0.85695 0.831725 0.868475 1.61016C0.880397 2.41544 1.53456 3.07697 2.31299 3.06545ZM13.0237 12.0085L13.0506 12.0081L12.9854 7.60595C12.9536 5.45853 12.4458 3.80144 9.92259 3.83879C8.71467 3.85668 7.91932 4.53967 7.57951 5.16221L7.55267 5.16261L7.53637 4.06206L5.14737 4.09743L5.2662 12.1234L7.76257 12.0864L7.70375 8.11372C7.68825 7.06685 7.86145 6.07089 9.1499 6.05182C10.4383 6.03274 10.4827 7.21342 10.4966 8.15292L10.5542 12.0451L13.0237 12.0085Z" fill="#101010"/>
</svg>
