<svg width="13" height="10" viewBox="0 0 13 10" fill="none" xmlns="http://www.w3.org/2000/svg">
<path d="M10.8705 2.3509C11.3152 2.00693 11.714 1.59616 12.0218 1.11926C11.6197 1.30515 11.1495 1.44707 10.6779 1.49904C11.1683 1.19938 11.5214 0.744299 11.693 0.179448C11.2473 0.455957 10.733 0.666002 10.2175 0.786096C9.76076 0.320518 9.1496 0.0596566 8.47498 0.0696444C7.1707 0.088954 6.12944 1.16151 6.14875 2.46579C6.15141 2.64569 6.17656 2.82526 6.2242 3.00449C4.26612 2.92102 2.49812 2.00251 1.30779 0.60311C1.1104 0.943419 1.00395 1.34986 1.01061 1.79961C1.0226 2.60916 1.43803 3.32277 2.09649 3.74037C1.71387 3.72354 1.33025 3.63925 1.01276 3.46402L1.01309 3.4865C1.03007 4.63337 1.85361 5.56585 2.93634 5.77475C2.7571 5.82239 2.53289 5.87069 2.3305 5.87369C2.17309 5.87602 2.03783 5.85553 1.88009 5.83537C2.18641 6.77552 3.07341 7.43716 4.10817 7.44433C3.30794 8.08597 2.30166 8.48324 1.19977 8.49955C0.997387 8.50255 0.817154 8.48272 0.636921 8.4629C1.68133 9.12221 2.92381 9.48619 4.27306 9.46621C8.61314 9.40195 10.9214 5.79149 10.8751 2.66572C10.8735 2.55329 10.8721 2.46334 10.8705 2.3509Z" fill="#101010"/>
</svg>
