<svg width="12" height="10" viewBox="0 0 12 10" fill="none" xmlns="http://www.w3.org/2000/svg">
<path d="M10.6881 2.36262C11.1328 2.01865 11.5316 1.60788 11.8395 1.13098C11.4373 1.31687 10.9671 1.45879 10.4955 1.51076C10.9859 1.21109 11.3391 0.756018 11.5106 0.191167C11.0649 0.467676 10.5507 0.67772 10.0351 0.797815C9.57839 0.332236 8.96723 0.0713753 8.2926 0.0813631C6.98833 0.100673 5.94707 1.17323 5.96637 2.47751C5.96904 2.65741 5.99419 2.83697 6.04183 3.01621C4.08375 2.93274 2.31574 2.01423 1.12542 0.614829C0.928026 0.955137 0.821581 1.36158 0.828239 1.81133C0.840225 2.62088 1.25565 3.33448 1.91412 3.75209C1.5315 3.73526 1.14788 3.65097 0.830388 3.47573L0.830721 3.49822C0.8477 4.64508 1.67123 5.57757 2.75396 5.78647C2.57473 5.83411 2.35052 5.88241 2.14813 5.88541C1.99072 5.88774 1.85546 5.86725 1.69772 5.84709C2.00404 6.78724 2.89104 7.44888 3.92579 7.45605C3.12557 8.09769 2.11929 8.49495 1.0174 8.51127C0.815014 8.51426 0.634781 8.49444 0.454548 8.47462C1.49896 9.13393 2.74143 9.4979 4.09068 9.47793C8.43077 9.41367 10.739 5.8032 10.6927 2.67744C10.6911 2.56501 10.6897 2.47506 10.6881 2.36262Z" fill="#101010"/>
</svg>
